<?xml version="1.0" encoding="UTF-8" standalone="no"?>
<!DOCTYPE svg PUBLIC "-//W3C//DTD SVG 1.1//EN" "http://www.w3.org/Graphics/SVG/1.1/DTD/svg11.dtd">
<svg width="100%" height="100%" viewBox="0 0 400 387" version="1.1" xmlns="http://www.w3.org/2000/svg" xmlns:xlink="http://www.w3.org/1999/xlink" xml:space="preserve" xmlns:serif="http://www.serif.com/" style="fill-rule:evenodd;clip-rule:evenodd;stroke-linejoin:round;stroke-miterlimit:2;">
    <g id="svgg">
        <path id="path0" d="M108.293,91.638C57.892,142.039 16.684,183.305 16.72,183.341C16.756,183.376 17.219,183.313 17.75,183.2C18.281,183.087 21.537,182.414 24.986,181.705L31.256,180.415L200,11.671L259.427,71.085L318.854,130.498L323.657,129.633C326.3,129.156 328.504,128.725 328.555,128.673C328.639,128.589 200.168,0 200,0C199.962,0 158.694,41.237 108.293,91.638M213.487,75.173C213.382,75.42 209.862,83.142 205.666,92.334C201.469,101.526 197.954,109.235 197.854,109.466L197.673,109.885L200.183,109.904C205.607,109.945 210.64,110.821 215.81,112.623C216.794,112.966 217.608,113.234 217.617,113.219C217.626,113.203 216.807,104.644 215.798,94.199C214.788,83.753 213.96,75.098 213.956,74.965C213.947,74.576 213.693,74.687 213.487,75.173M170.682,79.316C170.707,79.563 171.534,88.182 172.52,98.47C173.505,108.758 174.346,117.21 174.389,117.253C174.432,117.296 174.789,117.156 175.182,116.942C182.242,113.102 184.991,112.06 192.03,110.558C192.622,110.432 193.088,110.276 193.066,110.211C192.994,110.005 170.79,78.878 170.711,78.873C170.67,78.87 170.656,79.069 170.682,79.316M237.567,103.876C229.022,109.964 221.978,114.995 221.913,115.055C221.849,115.116 222.097,115.337 222.466,115.548C228.127,118.776 232.284,122.148 236.04,126.562C236.674,127.307 237.239,127.867 237.294,127.805C237.485,127.595 253.184,93.046 253.144,92.926C253.122,92.86 246.112,97.788 237.567,103.876M135.635,104.069C135.635,104.158 157.191,134.446 157.714,135.092L157.966,135.402L158.704,134.103C161.546,129.103 165.629,124.185 169.586,120.994C170.199,120.501 170.704,120.061 170.709,120.016C170.716,119.952 136.732,104.391 135.877,104.067C135.744,104.017 135.635,104.018 135.635,104.069M195.718,115.48C174.641,117.788 158.954,134.679 158.103,155.981L158.049,157.334L158.41,157.259C159.762,156.977 177.139,154.047 205.999,149.236C224.454,146.159 239.575,143.62 239.601,143.594C239.779,143.416 237.82,138.925 236.67,136.876C230.2,125.348 219.252,117.747 206.216,115.73C204.088,115.401 197.807,115.252 195.718,115.48M391.436,127.699C371.048,130.459 350.929,133.783 310.359,141.093C287.635,145.187 282.08,146.12 262.638,149.102C239.178,152.702 171.58,163.936 152.161,167.463C142.238,169.265 141.944,169.238 139.028,166.241C136.044,163.174 134.452,163.37 131.768,167.134C129.449,170.386 127.994,171.305 123.895,172.106C116.527,173.545 105.678,175.454 93.715,177.417C89.765,178.065 86.413,178.623 86.267,178.656C86.087,178.697 85.801,178.517 85.385,178.101C84.598,177.314 84.518,177.709 86.712,171.547C87.7,168.774 88.795,165.604 89.147,164.503C89.499,163.401 90.288,160.985 90.9,159.134C93.064,152.59 92.597,151.231 86.037,144.981C84.054,143.091 83.814,142.98 82.34,143.288C80.856,143.597 80.57,143.798 80.09,144.863C79.111,147.039 75.212,155.995 72.641,161.974C64.593,180.688 64.085,181.726 62.452,182.806C61.7,183.304 58.276,184.045 34.599,188.83C9.233,193.957 5.466,194.981 2.361,197.593C1.703,198.147 -0.301,204.026 0.048,204.376C0.184,204.512 4.371,204.849 5.18,204.789C5.711,204.75 17.065,203.16 30.41,201.254C57.383,197.403 55.345,197.65 55.823,198.17C57.004,199.451 57.412,198.125 51.796,211.257C50.138,215.131 48.41,219.233 47.955,220.373C47.5,221.512 46.557,223.812 45.86,225.483C41.549,235.811 41.407,240.956 45.274,246.744C49.565,253.167 53.733,256.178 59.155,256.774C60.389,256.909 61.52,256.867 68.163,256.434C82.61,255.494 94.322,254.894 107.459,254.42C112.616,254.234 113.784,253.923 115.239,252.348C116.277,251.223 116.306,251.159 120.835,239.848C128.444,220.844 134.67,205.627 135.181,204.787L135.685,203.956L136.04,204.913L136.394,205.87L136.434,225.414C136.455,236.164 136.52,265.967 136.577,291.644L136.682,338.329L136.996,339.227C138.306,342.967 141.218,347.249 144.281,349.941C147.085,352.405 150.084,354.472 150.656,354.334C151.302,354.178 152.251,353.646 152.877,353.088L153.476,352.555L153.474,303.591C153.472,231.335 153.397,226.168 152.001,202.348C150.915,183.811 150.939,184.768 151.522,183.601C152.086,182.472 150.961,182.731 166.644,180.12C188.236,176.523 189.037,176.437 188.302,177.788C188.093,178.17 187.698,178.678 187.424,178.917C185.963,180.186 163.761,201.309 160.618,204.42C156.722,208.277 156.242,209.94 158.028,213.398C160.624,218.424 164.852,219.674 179.282,219.68C187.383,219.683 189.214,219.555 203.1,218.018C211.483,217.09 212.293,217.031 213.403,217.266C215.229,217.654 215.874,216.754 201.658,233.633C182.96,255.833 181.095,258.182 174.025,268.439C169.466,275.052 169.098,275.626 168.081,277.693C163.928,286.139 165.003,294.15 171.16,300.632C174.533,304.182 177.721,305.457 180.255,304.268C181.065,303.888 194.244,295.139 198.338,292.263C203.037,288.962 211.052,282.931 222.896,273.783C231.454,267.173 245.312,256.498 248.419,254.123C252.651,250.887 252.074,250.802 256.492,255.308C261.321,260.233 265.391,262.365 270.878,262.842C274.617,263.168 283.007,262.026 296.754,259.321C318.634,255.017 325.342,252.997 339.475,246.46C353.932,239.773 357.127,237.06 357.105,231.492C357.074,223.885 349.295,215.88 342.863,216.837C339.961,217.268 339.281,218.45 339.706,222.322C339.943,224.483 339.278,225.213 335.635,226.796C334.534,227.274 330.68,228.999 327.072,230.629C303.675,241.199 299.116,242.666 275.679,247.168C269.018,248.448 267.272,248.742 267.015,248.624C266.442,248.363 265.609,247.614 265.174,246.969L264.75,246.34L264.828,244.613C265.009,240.625 266.027,238.365 269.126,235.069C275.614,228.17 276.728,220.877 272.309,214.23C271.587,213.144 271.376,212.308 271.552,211.229C272.117,207.752 274.936,199.211 280.537,184.003C282.374,179.014 282.434,178.911 283.715,178.531L284.431,178.318L288.46,181.061C293.99,184.825 295.47,185.895 301.146,190.234C305.251,193.371 307.104,193.1 310.861,188.812C314.76,184.364 315.45,181.23 313.157,178.386C312.296,177.319 299.459,166.953 293.819,162.772L293.095,162.234L294.096,161.833C295.274,161.361 311.973,158.936 358.909,152.423C371.768,150.639 383.257,149 387.067,148.406C391.685,147.687 392.544,146.805 396.692,138.523C399.427,133.06 399.994,131.57 399.998,129.834C400.003,127.185 398.324,126.767 391.436,127.699M258.771,129.704C248.743,130.677 240.37,131.493 240.164,131.517L239.788,131.561L240.689,133.08C241.956,135.218 243.341,138.108 244.281,140.573C244.838,142.035 245.149,142.68 245.297,142.68C245.415,142.68 248.09,142.275 251.243,141.781C254.396,141.287 257.915,140.737 259.064,140.561L261.152,140.239L269.492,134.286C274.079,131.012 277.956,128.238 278.108,128.121C278.542,127.788 278.359,127.803 258.771,129.704M139.434,141.163C131.001,141.982 122.624,142.793 120.818,142.965C118.723,143.164 117.551,143.329 117.581,143.421C117.608,143.501 125.022,146.942 134.056,151.07L150.483,158.574L151.345,158.496C151.819,158.453 152.288,158.387 152.388,158.348C152.523,158.297 152.612,157.507 152.735,155.279C153.028,149.944 154.009,145.037 155.645,140.711L156.049,139.641L155.407,139.657C155.054,139.667 147.866,140.344 139.434,141.163M353.936,159.815C351.354,160.183 349.147,160.487 349.033,160.491C348.92,160.494 356.192,167.863 365.193,176.865L381.56,193.232L370.446,204.347L359.332,215.461L359.634,215.845C360.528,216.981 361.983,219.307 362.78,220.873C363.277,221.852 363.729,222.652 363.783,222.652C363.837,222.652 370.501,216.032 378.591,207.942L393.301,193.232L376.243,176.174C364.375,164.306 359.101,159.12 358.909,159.131C358.757,159.139 356.519,159.446 353.936,159.815M262.167,166.452C262.806,166.537 263.351,166.626 263.377,166.651C263.542,166.801 260.419,170.122 253.384,177.276C238.029,192.893 230.89,200.072 230.279,200.512C229.102,201.36 230.533,201.172 199.033,204.618C178.12,206.906 178.941,206.842 178.004,206.263C177.945,206.226 178.156,205.697 178.474,205.086C179.136,203.814 184.006,199.317 202.693,182.727C215.445,171.406 211.977,172.954 230.525,170.303C255.951,166.67 260.049,166.171 262.167,166.452M121.098,187.796C121.812,188.206 121.93,187.616 120.293,191.808C117.148,199.862 116.216,202.574 110.172,221.271C108.244,227.231 106.853,231.781 106.502,233.274C105.521,237.439 104.85,237.733 100.898,235.729C98.747,234.639 95.767,234.41 90.47,234.929C88.836,235.089 86.63,235.282 85.566,235.357C82.992,235.54 83.013,235.538 75,236.327C71.164,236.705 67.403,237.066 66.644,237.131L65.262,237.248L64.77,236.739C64.5,236.46 64.167,235.996 64.031,235.709L63.783,235.186L64.781,232.338C65.33,230.771 67.053,225.946 68.608,221.616C71.949,212.319 73.634,207.536 75.226,202.839C77.908,194.923 79.32,193.498 85.221,192.752C91.776,191.923 106.121,189.69 118.785,187.528C120.104,187.302 120.271,187.322 121.098,187.796M259.289,195.453L259.53,195.947L258.766,198.008C256.936,202.943 256.752,203.119 253.756,202.771C252.532,202.63 252.595,202.691 252.815,201.858C253.142,200.619 254.149,199.327 257.261,196.154C258.663,194.725 258.894,194.645 259.289,195.453M27.279,208.313C24.772,208.693 22.693,209.031 22.658,209.065C22.623,209.099 25.977,212.51 30.11,216.644C34.244,220.778 37.653,224.133 37.686,224.101C37.718,224.068 38.482,222.19 39.382,219.928L41.019,215.815L36.912,211.706C33.044,207.835 32.777,207.597 32.321,207.61C32.055,207.617 29.786,207.933 27.279,208.313M251.065,215.883C252.877,216.285 253.101,216.791 252.978,220.192C252.716,227.416 251.446,229.693 244.406,235.564C242.659,237.022 240.452,238.957 239.503,239.866C231.872,247.169 225.658,251.947 200.676,269.716C190.731,276.79 188.437,278.224 189.76,276.539C189.977,276.262 191.694,273.923 193.574,271.34C199.458,263.257 207.951,253.165 227.641,230.858C241.02,215.7 240.371,216.329 243.094,215.888C243.664,215.796 244.223,215.698 244.337,215.67C244.8,215.558 250.396,215.734 251.065,215.883M324.586,259.394C321.003,260.587 318.523,261.288 314.572,262.224L311.948,262.845L200,374.793L180.752,355.545C166.06,340.853 161.483,336.353 161.415,336.53C161.366,336.658 161.326,339.26 161.326,342.311L161.326,347.859L200,386.533L264.019,322.514C299.23,287.303 328.039,258.448 328.039,258.391C328.039,258.241 328.12,258.217 324.586,259.394M81.077,262.329C78.456,262.481 76.284,262.63 76.249,262.662C76.214,262.693 87.961,274.494 102.354,288.887L128.522,315.056L128.558,309.221L128.594,303.387L87.224,262.017L86.533,262.035C86.153,262.045 83.698,262.177 81.077,262.329"/>
    </g>
</svg>
