<?xml version="1.0" encoding="UTF-8" standalone="no"?>
<!DOCTYPE svg PUBLIC "-//W3C//DTD SVG 1.1//EN" "http://www.w3.org/Graphics/SVG/1.1/DTD/svg11.dtd">
<svg width="100%" height="100%" viewBox="0 0 652 68" version="1.1" xmlns="http://www.w3.org/2000/svg" xmlns:xlink="http://www.w3.org/1999/xlink" xml:space="preserve" xmlns:serif="http://www.serif.com/" style="fill-rule:evenodd;clip-rule:evenodd;stroke-linejoin:round;stroke-miterlimit:2;">
    <g transform="matrix(1,0,0,1,-5.68434e-14,-144)">
        <g transform="matrix(1,0,0,1,2,0)">
            <g transform="matrix(1.22556,0,0,0.168342,-75.5338,79.0101)">
                <rect x="60" y="392" width="532" height="398" style="fill:none;"/>
            </g>
            <g transform="matrix(0.823045,0,0,0.823045,331.916,209.052)">
                <path d="M98.592,-29.088L98.592,-75.36L72.864,-75.36L72.864,-31.392C72.864,-23.52 65.568,-18.24 53.28,-18.24C40.416,-18.24 33.408,-23.328 33.408,-31.488L33.408,-75.36L7.392,-75.36L7.392,-31.488C7.392,-8.64 26.112,1.056 52.224,1.056C80.16,1.056 98.592,-8.736 98.592,-29.088Z" style="fill:none;fill-rule:nonzero;stroke:rgb(250,250,250);stroke-width:4.86px;"/>
                <rect x="113.472" y="-75.36" width="26.4" height="75.36" style="fill:none;fill-rule:nonzero;stroke:rgb(250,250,250);stroke-width:4.86px;"/>
                <path d="M245.76,-29.088L245.76,-75.36L220.032,-75.36L220.032,-31.392C220.032,-23.52 212.736,-18.24 200.448,-18.24C187.584,-18.24 180.576,-23.328 180.576,-31.488L180.576,-75.36L154.56,-75.36L154.56,-31.488C154.56,-8.64 173.28,1.056 199.392,1.056C227.328,1.056 245.76,-8.736 245.76,-29.088Z" style="fill:none;fill-rule:nonzero;stroke:rgb(250,250,250);stroke-width:4.86px;"/>
                <path d="M355.2,-30.72L328.512,-30.72C328.416,-28.704 327.936,-26.784 326.784,-25.152C323.616,-20.544 316.416,-18.528 306.336,-18.528C297.696,-18.528 289.344,-20.64 285.6,-26.208C283.776,-28.8 282.912,-32.352 282.912,-37.536C282.912,-42.336 283.584,-46.176 285.312,-48.768C288.672,-54.048 296.064,-56.64 306.24,-56.64C317.472,-56.64 323.616,-53.664 326.4,-49.632C327.552,-48 328.224,-45.792 328.32,-44.064L355.008,-44.064C354.912,-46.464 354.432,-50.88 352.896,-54.816C348.384,-66.048 336.096,-76.608 306.528,-76.608C284.832,-76.608 271.008,-70.848 263.328,-61.248C258.528,-55.392 256.128,-47.424 256.128,-37.824C256.128,-27.264 258.72,-19.008 263.808,-13.056C271.2,-4.128 284.928,1.152 306.048,1.152C332.448,1.152 346.368,-6.048 352.416,-19.008C354.336,-22.752 354.912,-28.032 355.2,-30.72Z" style="fill:none;fill-rule:nonzero;stroke:rgb(250,250,250);stroke-width:4.86px;"/>
            </g>
            <g transform="matrix(0.823045,0,0,0.823045,-174.626,-13.99)">
                <g transform="matrix(96,0,0,96,209.771,270.996)">
                    <path d="M0.941,-0.588L0.941,-0.785L0.004,-0.785L0.004,-0.588L0.335,-0.588L0.335,-0L0.609,-0L0.609,-0.588L0.941,-0.588Z" style="fill:rgb(250,250,250);fill-rule:nonzero;"/>
                </g>
                <g transform="matrix(96,0,0,96,291.947,270.996)">
                    <path d="M0.35,-0.145L0.774,-0.145L0.843,-0L1.132,-0L0.736,-0.785L0.413,-0.785L-0.006,-0L0.277,-0L0.35,-0.145ZM0.689,-0.321L0.438,-0.321L0.537,-0.51L0.567,-0.582L0.595,-0.511L0.689,-0.321Z" style="fill:rgb(250,250,250);fill-rule:nonzero;"/>
                </g>
                <g transform="matrix(96,0,0,96,398.795,270.996)">
                    <path d="M1.005,-0.244C1.005,-0.381 0.918,-0.453 0.715,-0.475C0.682,-0.479 0.585,-0.489 0.524,-0.494C0.367,-0.511 0.32,-0.52 0.32,-0.56C0.32,-0.596 0.357,-0.613 0.498,-0.613C0.598,-0.613 0.654,-0.594 0.676,-0.565C0.687,-0.551 0.691,-0.54 0.692,-0.529L0.98,-0.529C0.977,-0.553 0.967,-0.587 0.951,-0.617C0.899,-0.717 0.774,-0.797 0.505,-0.797C0.202,-0.797 0.036,-0.69 0.036,-0.55C0.036,-0.415 0.13,-0.336 0.384,-0.313C0.419,-0.31 0.503,-0.302 0.556,-0.297C0.689,-0.283 0.725,-0.274 0.725,-0.232C0.725,-0.193 0.69,-0.172 0.543,-0.172C0.429,-0.172 0.362,-0.189 0.338,-0.218C0.328,-0.23 0.321,-0.248 0.319,-0.26L0.031,-0.26C0.034,-0.24 0.039,-0.208 0.05,-0.182C0.099,-0.072 0.227,0.012 0.524,0.012C0.843,0.012 1.005,-0.078 1.005,-0.244Z" style="fill:rgb(250,250,250);fill-rule:nonzero;"/>
                </g>
                <g transform="matrix(96,0,0,96,498.731,270.996)">
                    <path d="M1.065,-0.32L0.787,-0.32C0.786,-0.299 0.781,-0.279 0.769,-0.262C0.736,-0.214 0.661,-0.193 0.556,-0.193C0.466,-0.193 0.379,-0.215 0.34,-0.273C0.321,-0.3 0.312,-0.337 0.312,-0.391C0.312,-0.441 0.319,-0.481 0.337,-0.508C0.372,-0.563 0.449,-0.59 0.555,-0.59C0.672,-0.59 0.736,-0.559 0.765,-0.517C0.777,-0.5 0.784,-0.477 0.785,-0.459L1.063,-0.459C1.062,-0.484 1.057,-0.53 1.041,-0.571C0.994,-0.688 0.866,-0.798 0.558,-0.798C0.332,-0.798 0.188,-0.738 0.108,-0.638C0.058,-0.577 0.033,-0.494 0.033,-0.394C0.033,-0.284 0.06,-0.198 0.113,-0.136C0.19,-0.043 0.333,0.012 0.553,0.012C0.828,0.012 0.973,-0.063 1.036,-0.198C1.056,-0.237 1.062,-0.292 1.065,-0.32Z" style="fill:rgb(250,250,250);fill-rule:nonzero;"/>
                </g>
            </g>
        </g>
    </g>
</svg>
