<?xml version="1.0" encoding="UTF-8" standalone="no"?>
<!DOCTYPE svg PUBLIC "-//W3C//DTD SVG 1.1//EN" "http://www.w3.org/Graphics/SVG/1.1/DTD/svg11.dtd">
<svg width="100%" height="100%" viewBox="0 0 323 139" version="1.1" xmlns="http://www.w3.org/2000/svg" xmlns:xlink="http://www.w3.org/1999/xlink" xml:space="preserve" xmlns:serif="http://www.serif.com/" style="fill-rule:evenodd;clip-rule:evenodd;stroke-linejoin:round;stroke-miterlimit:2;">
    <g transform="matrix(1,0,0,1,0.5,0.5)">
        <g>
            <g transform="matrix(0.605263,0,0,0.346734,-36.3158,-135.92)">
                <rect x="60" y="392" width="532" height="398" style="fill:none;"/>
            </g>
            <g transform="matrix(0.823045,0,0,0.823045,-4.08395,135.052)">
                <path d="M98.592,-29.088L98.592,-75.36L72.864,-75.36L72.864,-31.392C72.864,-23.52 65.568,-18.24 53.28,-18.24C40.416,-18.24 33.408,-23.328 33.408,-31.488L33.408,-75.36L7.392,-75.36L7.392,-31.488C7.392,-8.64 26.112,1.056 52.224,1.056C80.16,1.056 98.592,-8.736 98.592,-29.088Z" style="fill:none;fill-rule:nonzero;stroke:rgb(250,250,250);stroke-width:4.86px;"/>
                <rect x="126.432" y="-75.36" width="26.4" height="75.36" style="fill:none;fill-rule:nonzero;stroke:rgb(250,250,250);stroke-width:4.86px;"/>
                <path d="M271.68,-29.088L271.68,-75.36L245.952,-75.36L245.952,-31.392C245.952,-23.52 238.656,-18.24 226.368,-18.24C213.504,-18.24 206.496,-23.328 206.496,-31.488L206.496,-75.36L180.48,-75.36L180.48,-31.488C180.48,-8.64 199.2,1.056 225.312,1.056C253.248,1.056 271.68,-8.736 271.68,-29.088Z" style="fill:none;fill-rule:nonzero;stroke:rgb(250,250,250);stroke-width:4.86px;"/>
                <path d="M394.08,-30.72L367.392,-30.72C367.296,-28.704 366.816,-26.784 365.664,-25.152C362.496,-20.544 355.296,-18.528 345.216,-18.528C336.576,-18.528 328.224,-20.64 324.48,-26.208C322.656,-28.8 321.792,-32.352 321.792,-37.536C321.792,-42.336 322.464,-46.176 324.192,-48.768C327.552,-54.048 334.944,-56.64 345.12,-56.64C356.352,-56.64 362.496,-53.664 365.28,-49.632C366.432,-48 367.104,-45.792 367.2,-44.064L393.888,-44.064C393.792,-46.464 393.312,-50.88 391.776,-54.816C387.264,-66.048 374.976,-76.608 345.408,-76.608C323.712,-76.608 309.888,-70.848 302.208,-61.248C297.408,-55.392 295.008,-47.424 295.008,-37.824C295.008,-27.264 297.6,-19.008 302.688,-13.056C310.08,-4.128 323.808,1.152 344.928,1.152C371.328,1.152 385.248,-6.048 391.296,-19.008C393.216,-22.752 393.792,-28.032 394.08,-30.72Z" style="fill:none;fill-rule:nonzero;stroke:rgb(250,250,250);stroke-width:4.86px;"/>
            </g>
            <g transform="matrix(0.823045,0,0,0.823045,-172.967,-159.99)">
                <path d="M300.107,214.548L300.107,195.636L210.155,195.636L210.155,214.548L241.931,214.548L241.931,270.996L268.235,270.996L268.235,214.548L300.107,214.548Z" style="fill:rgb(250,250,250);fill-rule:nonzero;stroke:rgb(250,250,250);stroke-width:1.21px;"/>
                <path d="M325.547,257.076L366.251,257.076L372.875,270.996L400.619,270.996L362.603,195.636L331.595,195.636L291.371,270.996L318.539,270.996L325.547,257.076ZM358.091,240.18L333.995,240.18L343.499,222.036L346.379,215.124L349.067,221.94L358.091,240.18Z" style="fill:rgb(250,250,250);fill-rule:nonzero;stroke:rgb(250,250,250);stroke-width:1.21px;"/>
                <path d="M495.275,247.572C495.275,234.42 486.923,227.508 467.435,225.396C464.267,225.012 454.955,224.052 449.099,223.572C434.027,221.94 429.515,221.076 429.515,217.236C429.515,213.78 433.067,212.148 446.603,212.148C456.203,212.148 461.579,213.972 463.691,216.756C464.747,218.1 465.131,219.156 465.227,220.212L492.875,220.212C492.587,217.908 491.627,214.644 490.091,211.764C485.099,202.164 473.099,194.484 447.275,194.484C418.187,194.484 402.251,204.756 402.251,218.196C402.251,231.156 411.275,238.74 435.659,240.948C439.019,241.236 447.083,242.004 452.171,242.484C464.939,243.828 468.395,244.692 468.395,248.724C468.395,252.468 465.035,254.484 450.923,254.484C439.979,254.484 433.547,252.852 431.243,250.068C430.283,248.916 429.611,247.188 429.419,246.036L401.771,246.036C402.059,247.956 402.539,251.028 403.595,253.524C408.299,264.084 420.587,272.148 449.099,272.148C479.723,272.148 495.275,263.508 495.275,247.572Z" style="fill:rgb(250,250,250);fill-rule:nonzero;stroke:rgb(250,250,250);stroke-width:1.21px;"/>
                <path d="M600.971,240.276L574.283,240.276C574.187,242.292 573.707,244.212 572.555,245.844C569.387,250.452 562.187,252.468 552.107,252.468C543.467,252.468 535.115,250.356 531.371,244.788C529.547,242.196 528.683,238.644 528.683,233.46C528.683,228.66 529.355,224.82 531.083,222.228C534.443,216.948 541.835,214.356 552.011,214.356C563.243,214.356 569.387,217.332 572.171,221.364C573.323,222.996 573.995,225.204 574.091,226.932L600.779,226.932C600.683,224.532 600.203,220.116 598.667,216.18C594.155,204.948 581.867,194.388 552.299,194.388C530.603,194.388 516.779,200.148 509.099,209.748C504.299,215.604 501.899,223.572 501.899,233.172C501.899,243.732 504.491,251.988 509.579,257.94C516.971,266.868 530.699,272.148 551.819,272.148C578.219,272.148 592.139,264.948 598.187,251.988C600.107,248.244 600.683,242.964 600.971,240.276Z" style="fill:rgb(250,250,250);fill-rule:nonzero;stroke:rgb(250,250,250);stroke-width:1.21px;"/>
            </g>
        </g>
    </g>
</svg>
