<?xml version="1.0" encoding="UTF-8" standalone="no"?>
<svg
   xmlns:dc="http://purl.org/dc/elements/1.1/"
   xmlns:cc="http://creativecommons.org/ns#"
   xmlns:rdf="http://www.w3.org/1999/02/22-rdf-syntax-ns#"
   xmlns:svg="http://www.w3.org/2000/svg"
   xmlns="http://www.w3.org/2000/svg"
   xmlns:sodipodi="http://sodipodi.sourceforge.net/DTD/sodipodi-0.dtd"
   xmlns:inkscape="http://www.inkscape.org/namespaces/inkscape"
   version="1.1"
   id="svg2"
   xml:space="preserve"
   width="401.25333"
   height="104.29333"
   viewBox="0 0 401.25333 104.29333"
   sodipodi:docname="University-Wordmark-Limited-Use-Black.eps"><metadata
     id="metadata8"><rdf:RDF><cc:Work
         rdf:about=""><dc:format>image/svg+xml</dc:format><dc:type
           rdf:resource="http://purl.org/dc/dcmitype/StillImage" /></cc:Work></rdf:RDF></metadata><defs
     id="defs6" /><sodipodi:namedview
     pagecolor="#ffffff"
     bordercolor="#666666"
     borderopacity="1"
     objecttolerance="10"
     gridtolerance="10"
     guidetolerance="10"
     inkscape:pageopacity="0"
     inkscape:pageshadow="2"
     inkscape:window-width="640"
     inkscape:window-height="480"
     id="namedview4" /><g
     id="g10"
     inkscape:groupmode="layer"
     inkscape:label="ink_ext_XXXXXX"
     transform="matrix(1.3333333,0,0,-1.3333333,0,104.29333)"><g
       id="g12"
       transform="scale(0.1)"><path
         d="M 0,571.621 H 120.34 V 210.605 L 0,210.605 V 0 H 541.527 V 210.605 H 421.191 V 571.621 H 541.527 V 782.207 H 0 V 571.621"
         style="fill:#100f0d;fill-opacity:1;fill-rule:nonzero;stroke:none"
         id="path14" /><path
         d="m 966.242,206.203 h 71.348 V 530.535 H 966.242 V 206.203"
         style="fill:#100f0d;fill-opacity:1;fill-rule:nonzero;stroke:none"
         id="path16" /><path
         d="m 1193.71,530.535 h -71.35 V 206.203 h 233.04 v 64.871 h -161.69 v 259.461"
         style="fill:#100f0d;fill-opacity:1;fill-rule:nonzero;stroke:none"
         id="path18" /><path
         d="m 1479.03,530.535 h -71.36 V 206.203 h 233.07 v 64.871 h -161.71 v 259.461"
         style="fill:#100f0d;fill-opacity:1;fill-rule:nonzero;stroke:none"
         id="path20" /><path
         d="m 1694.56,206.203 h 71.36 v 324.332 h -71.36 V 206.203"
         style="fill:#100f0d;fill-opacity:1;fill-rule:nonzero;stroke:none"
         id="path22" /><path
         d="m 2068.45,330.852 -151.96,199.683 h -65.8 V 206.203 h 70.42 v 206.18 l 157.07,-206.18 h 60.7 v 324.332 h -70.43 V 330.852"
         style="fill:#100f0d;fill-opacity:1;fill-rule:nonzero;stroke:none"
         id="path24" /><path
         d="m 2476.49,367.441 c 0,-55.593 -39.84,-100.996 -97.3,-100.996 -57.45,0 -98.23,46.328 -98.23,101.934 v 0.918 c 0,55.605 39.85,101.016 97.31,101.016 57.46,0 98.22,-46.348 98.22,-101.934 z m -97.3,168.653 c -100.08,0 -172.82,-75.516 -172.82,-167.715 v -0.938 c 0,-92.199 71.82,-166.796 171.9,-166.796 100.08,0 172.82,75.515 172.82,167.734 v 0.918 c 0,92.207 -71.81,166.797 -171.9,166.797"
         style="fill:#100f0d;fill-opacity:1;fill-rule:nonzero;stroke:none"
         id="path26" /><path
         d="m 2620.15,206.203 h 71.37 v 324.332 h -71.37 V 206.203"
         style="fill:#100f0d;fill-opacity:1;fill-rule:nonzero;stroke:none"
         id="path28" /><path
         d="m 2906.57,400.344 c -56.07,14.363 -69.97,21.308 -69.97,42.625 v 0.929 c 0,15.75 14.36,28.262 41.69,28.262 27.35,0 55.61,-12.051 84.33,-31.965 l 37.08,53.743 c -32.9,26.406 -73.21,41.23 -120.48,41.23 -66.25,0 -113.51,-38.918 -113.51,-97.758 v -0.926 c 0,-64.406 42.16,-82.48 107.5,-99.16 54.21,-13.906 65.32,-23.152 65.32,-41.23 v -0.926 c 0,-19.008 -17.61,-30.59 -46.8,-30.59 -37.06,0 -67.64,15.305 -96.83,39.387 l -42.16,-50.496 c 38.91,-34.758 88.49,-51.895 137.61,-51.895 69.96,0 119.08,36.141 119.08,100.535 v 0.926 c 0,56.535 -37.07,80.16 -102.86,97.309"
         style="fill:#100f0d;fill-opacity:1;fill-rule:nonzero;stroke:none"
         id="path30" /><path
         d="m 1037.78,678.82 c 0,-20.07 -10.31,-30.39 -27.3,-30.39 -17.019,0 -27.312,10.672 -27.312,31.297 v 71.621 h -27.863 v -72.344 c 0,-37.266 20.793,-56.25 54.805,-56.25 33.99,0 55.53,18.809 55.53,57.148 v 71.446 h -27.86 V 678.82"
         style="fill:#100f0d;fill-opacity:1;fill-rule:nonzero;stroke:none"
         id="path32" /><path
         d="m 1172.96,705.227 61.31,-80.481 h 23.7 v 126.602 h -27.5 v -77.95 l -59.31,77.95 h -25.69 V 624.746 h 27.49 v 80.481"
         style="fill:#100f0d;fill-opacity:1;fill-rule:nonzero;stroke:none"
         id="path34" /><path
         d="m 1367.7,751.348 h -27.86 V 624.746 h 27.86 v 126.602"
         style="fill:#100f0d;fill-opacity:1;fill-rule:nonzero;stroke:none"
         id="path36" /><path
         d="m 1512.13,623.84 51.19,127.508 h -30.04 l -33.07,-89.168 -33.11,89.168 h -30.74 l 51.17,-127.508 h 24.6"
         style="fill:#100f0d;fill-opacity:1;fill-rule:nonzero;stroke:none"
         id="path38" /><path
         d="m 1728.13,649.512 h -68.72 v 26.593 h 59.68 v 24.774 h -59.68 v 25.684 h 67.82 v 24.785 h -95.5 V 624.746 h 96.4 v 24.766"
         style="fill:#100f0d;fill-opacity:1;fill-rule:nonzero;stroke:none"
         id="path40" /><path
         d="m 1832.38,726.203 h 27.65 c 13.57,0 21.9,-6.152 21.9,-18.078 v -0.371 c 0,-10.664 -7.79,-17.899 -21.35,-17.899 h -28.2 z m 49,-101.457 h 32.55 L 1883,669.949 c 16.1,5.981 27.13,18.821 27.13,39.25 v 0.364 c 0,26.042 -17.89,41.785 -47.74,41.785 h -57.87 V 624.746 h 27.86 v 40.508 h 21.87 l 27.13,-40.508"
         style="fill:#100f0d;fill-opacity:1;fill-rule:nonzero;stroke:none"
         id="path42" /><path
         d="m 2030.21,647.531 c -14.46,0 -26.4,5.965 -37.79,15.371 l -16.45,-19.707 c 15.19,-13.566 34.54,-20.265 53.71,-20.265 27.32,0 46.49,14.113 46.49,39.25 v 0.359 c 0,22.07 -14.49,31.289 -40.16,37.981 -21.89,5.613 -27.31,8.328 -27.31,16.64 v 0.36 c 0,6.152 5.61,11.035 16.26,11.035 10.69,0 21.71,-4.707 32.92,-12.481 l 14.49,20.989 c -12.85,10.3 -28.6,16.093 -47.03,16.093 -25.87,0 -44.31,-15.195 -44.31,-38.164 v -0.363 c 0,-25.137 16.44,-32.195 41.95,-38.699 21.15,-5.422 25.5,-9.055 25.5,-16.094 v -0.371 c 0,-7.414 -6.87,-11.934 -18.27,-11.934"
         style="fill:#100f0d;fill-opacity:1;fill-rule:nonzero;stroke:none"
         id="path44" /><path
         d="m 2179.16,751.348 h -27.85 V 624.746 h 27.85 v 126.602"
         style="fill:#100f0d;fill-opacity:1;fill-rule:nonzero;stroke:none"
         id="path46" /><path
         d="m 2287.31,624.746 h 27.84 v 100.91 h 38.52 v 25.692 h -104.89 v -25.692 h 38.53 v -100.91"
         style="fill:#100f0d;fill-opacity:1;fill-rule:nonzero;stroke:none"
         id="path48" /><path
         d="m 2464.82,624.746 h 27.84 v 50.457 l 48.65,76.145 h -31.65 l -30.75,-50.828 -30.2,50.828 h -32.54 l 48.65,-76.688 v -49.914"
         style="fill:#100f0d;fill-opacity:1;fill-rule:nonzero;stroke:none"
         id="path50" /><path
         d="m 2730.7,688.41 c 0,21.688 15.55,39.422 37.97,39.422 22.44,0 38.34,-18.086 38.34,-39.793 v -0.351 c 0,-21.711 -15.55,-39.426 -37.97,-39.426 -22.43,0 -38.34,18.078 -38.34,39.777 z m 37.97,-65.84 c 39.07,0 67.46,29.481 67.46,65.469 v 0.371 c 0,35.985 -28.02,65.106 -67.09,65.106 -39.08,0 -67.46,-29.481 -67.46,-65.477 v -0.351 c 0,-35.997 28.02,-65.118 67.09,-65.118"
         style="fill:#100f0d;fill-opacity:1;fill-rule:nonzero;stroke:none"
         id="path52" /><path
         d="m 2938.63,673.75 h 60.39 v 25.324 h -60.39 v 26.953 h 68.53 v 25.321 h -96.39 V 624.746 h 27.86 v 49.004"
         style="fill:#100f0d;fill-opacity:1;fill-rule:nonzero;stroke:none"
         id="path54" /><path
         d="m 1019.25,65.0508 c 0,-12.961 -6.65,-19.6094 -17.63,-19.6094 -10.972,0 -17.624,6.8828 -17.624,20.1953 V 111.867 H 966.02 V 65.168 c 0,-24.0547 13.425,-36.3086 35.37,-36.3086 21.94,0 35.84,12.1484 35.84,36.8945 v 46.1131 h -17.98 V 65.0508"
         style="fill:#100f0d;fill-opacity:1;fill-rule:nonzero;stroke:none"
         id="path56" /><path
         d="m 1154.07,83.7305 c 0,-6.8946 -5.02,-11.5625 -13.77,-11.5625 h -18.22 v 23.4687 h 17.86 c 8.76,0 14.13,-3.9648 14.13,-11.6719 z m 18.21,0.9297 v 0.2343 c 0,7.7032 -2.45,14.1289 -7,18.6795 -5.37,5.371 -13.43,8.293 -23.82,8.293 H 1104.1 V 30.1484 h 17.98 v 26.1407 h 14.12 l 17.52,-26.1407 h 21.01 l -19.96,29.1797 c 10.39,3.8555 17.51,12.1485 17.51,25.3321"
         style="fill:#100f0d;fill-opacity:1;fill-rule:nonzero;stroke:none"
         id="path58" /><path
         d="m 1288.66,54.7773 c 0,-6.0742 -4.79,-8.8671 -12.73,-8.8671 h -21.37 v 17.9765 h 20.79 c 9.21,0 13.31,-3.3867 13.31,-8.875 z m -34.1,41.3282 h 17.75 c 7.59,0 11.79,-3.0391 11.79,-8.4102 v -0.2344 c 0,-6.0625 -5.01,-8.6328 -12.95,-8.6328 h -16.59 z m 36.66,-23.2344 c 5.83,3.2734 10.75,8.4102 10.75,17.6289 v 0.2344 c 0,5.6054 -1.88,10.1566 -5.61,13.8826 -4.67,4.68 -12.02,7.25 -21.37,7.25 h -37.94 V 30.1484 h 38.88 c 18.44,0 30.59,7.4688 30.59,22.4102 v 0.2344 c 0,10.9765 -5.84,16.457 -15.3,20.0781"
         style="fill:#100f0d;fill-opacity:1;fill-rule:nonzero;stroke:none"
         id="path60" /><path
         d="m 1395.1,64.3477 10.86,26.5039 10.86,-26.5039 z m 2.8,48.0933 -35.02,-82.2926 h 18.33 l 7.47,18.3282 h 34.56 l 7.47,-18.3282 h 18.8 l -35.02,82.2926 h -16.59"
         style="fill:#100f0d;fill-opacity:1;fill-rule:nonzero;stroke:none"
         id="path62" /><path
         d="m 1565.53,61.543 -38.29,50.324 h -16.58 V 30.1484 h 17.74 v 51.9414 l 39.58,-51.9414 h 15.29 v 81.7186 h -17.74 V 61.543"
         style="fill:#100f0d;fill-opacity:1;fill-rule:nonzero;stroke:none"
         id="path64" /><path
         d="m 1676.64,64.3477 10.86,26.5039 10.86,-26.5039 z m 2.81,48.0933 -35.02,-82.2926 h 18.33 l 7.47,18.3282 h 34.55 l 7.47,-18.3282 h 18.8 l -35.02,82.2926 h -16.58"
         style="fill:#100f0d;fill-opacity:1;fill-rule:nonzero;stroke:none"
         id="path66" /><path
         d="m 1785.9,57.8125 h 35.95 v 17.043 h -35.95 v -17.043"
         style="fill:#100f0d;fill-opacity:1;fill-rule:nonzero;stroke:none"
         id="path68" /><path
         d="m 1920.25,45.3242 c -14.01,0 -23.69,11.668 -23.69,25.6836 v 0.2344 c 0,14 9.92,25.4492 23.69,25.4492 8.17,0 14.6,-3.5078 20.9,-9.2305 l 11.44,13.1951 c -7.59,7.469 -16.82,12.606 -32.23,12.606 -25.09,0 -42.6,-19.0237 -42.6,-42.2542 v -0.2344 c 0,-23.4687 17.86,-42.0312 41.91,-42.0312 15.75,0 25.1,5.6055 33.51,14.5976 l -11.45,11.5547 c -6.41,-5.8398 -12.14,-9.5703 -21.48,-9.5703"
         style="fill:#100f0d;fill-opacity:1;fill-rule:nonzero;stroke:none"
         id="path70" /><path
         d="m 2067.21,79.5234 h -33.15 v 32.3436 h -17.98 V 30.1484 h 17.98 v 32.8008 h 33.15 V 30.1484 h 17.98 v 81.7186 h -17.98 V 79.5234"
         style="fill:#100f0d;fill-opacity:1;fill-rule:nonzero;stroke:none"
         id="path72" /><path
         d="m 2178.57,64.3477 10.85,26.5039 10.86,-26.5039 z m 2.79,48.0933 -35.02,-82.2926 h 18.33 l 7.47,18.3282 h 34.56 l 7.47,-18.3282 h 18.79 l -35.02,82.2926 h -16.58"
         style="fill:#100f0d;fill-opacity:1;fill-rule:nonzero;stroke:none"
         id="path74" /><path
         d="m 2334.98,77.3047 -21.48,34.5623 h -19.39 V 30.1484 h 17.64 v 52.9961 l 22.77,-34.5507 h 0.46 l 22.99,34.9023 V 30.1484 h 17.86 v 81.7186 h -19.37 l -21.48,-34.5623"
         style="fill:#100f0d;fill-opacity:1;fill-rule:nonzero;stroke:none"
         id="path76" /><path
         d="m 2490.46,83.0273 c 0,-7 -5.25,-12.371 -14.25,-12.371 h -14.23 v 24.9804 h 13.88 c 9,0 14.6,-4.3164 14.6,-12.375 z m -13.07,28.8397 H 2444 V 30.1484 h 17.98 v 24.5118 h 13.65 c 18.33,0 33.04,9.8046 33.04,28.7187 v 0.2344 c 0,16.6917 -11.79,28.2537 -31.28,28.2537"
         style="fill:#100f0d;fill-opacity:1;fill-rule:nonzero;stroke:none"
         id="path78" /><path
         d="m 2587.57,64.3477 10.86,26.5039 10.85,-26.5039 z m 2.8,48.0933 -35.02,-82.2926 h 18.33 l 7.47,18.3282 h 34.56 l 7.47,-18.3282 h 18.79 l -35.02,82.2926 h -16.58"
         style="fill:#100f0d;fill-opacity:1;fill-rule:nonzero;stroke:none"
         id="path80" /><path
         d="m 2703.95,30.1484 h 17.98 v 81.7186 h -17.98 V 30.1484"
         style="fill:#100f0d;fill-opacity:1;fill-rule:nonzero;stroke:none"
         id="path82" /><path
         d="m 2829.66,61.6602 h 18.1 v -11.668 c -4.55,-3.2734 -10.39,-4.9024 -16.93,-4.9024 -14.48,0 -24.75,10.9766 -24.75,25.918 v 0.2344 c 0,13.8867 10.39,25.4492 23.46,25.4492 9.46,0 15.06,-3.0391 21.37,-8.293 l 11.32,13.6646 c -8.52,7.234 -17.39,11.199 -32.1,11.199 -24.75,0 -42.84,-19.0237 -42.84,-42.2542 v -0.2344 c 0,-24.1718 17.51,-42.0312 42.96,-42.0312 14.94,0 26.5,5.8359 34.9,12.957 v 35.4883 h -35.49 V 61.6602"
         style="fill:#100f0d;fill-opacity:1;fill-rule:nonzero;stroke:none"
         id="path84" /><path
         d="m 2985.84,61.543 -38.29,50.324 h -16.57 V 30.1484 h 17.74 v 51.9414 l 39.57,-51.9414 h 15.3 v 81.7186 h -17.75 V 61.543"
         style="fill:#100f0d;fill-opacity:1;fill-rule:nonzero;stroke:none"
         id="path86" /></g></g></svg>
